<svg xmlns="http://www.w3.org/2000/svg" xmlns:xlink="http://www.w3.org/1999/xlink"><defs><style>
    .sprite-symbol-usage {display: none;}
    .sprite-symbol-usage:target {display: inline;}
  </style><symbol viewBox="0 0 24 24" fill="none" stroke="currentColor" stroke-width="2" stroke-linecap="round" stroke-linejoin="round" class="feather feather-chevron-down" id="chevron-down"><polyline points="6 9 12 15 18 9" /></symbol><symbol viewBox="0 0 41.41 33" id="left-quote"><title>left-quote</title><path d="M22.8,34.07a7.43,7.43,0,0,1-2.38,5.79,8.67,8.67,0,0,1-6,2.14,9.4,9.4,0,0,1-7.06-2.86q-2.77-2.85-2.78-8.4a23.85,23.85,0,0,1,1.51-9,24.14,24.14,0,0,1,3.65-6.34,22,22,0,0,1,4.44-4.21A18.62,18.62,0,0,1,18.2,9l4,5.55a15.42,15.42,0,0,0-5.63,4.68,12.19,12.19,0,0,0-2.14,7.38,7.78,7.78,0,0,1,1.74-.16,5.89,5.89,0,0,1,4.92,2.22A8.51,8.51,0,0,1,22.8,34.07Zm23.16,0a7.4,7.4,0,0,1-2.38,5.79,8.67,8.67,0,0,1-6,2.14,9.41,9.41,0,0,1-7.06-2.86q-2.77-2.85-2.77-8.4a24.06,24.06,0,0,1,1.5-9,24.14,24.14,0,0,1,3.65-6.34,22,22,0,0,1,4.44-4.21,18.62,18.62,0,0,1,4-2.22l4,5.55a15.45,15.45,0,0,0-5.64,4.68,12.19,12.19,0,0,0-2.14,7.38,7.88,7.88,0,0,1,1.75-.16,5.88,5.88,0,0,1,4.91,2.22A8.45,8.45,0,0,1,46,34.07Z" transform="translate(-4.55 -9)" fill="#fff" /></symbol></defs><use id="chevron-down-usage" xlink:href="#chevron-down" class="sprite-symbol-usage" /><use id="left-quote-usage" xlink:href="#left-quote" class="sprite-symbol-usage" /></svg>