<svg xmlns="http://www.w3.org/2000/svg" xmlns:xlink="http://www.w3.org/1999/xlink"><defs><style>
    .sprite-symbol-usage {display: none;}
    .sprite-symbol-usage:target {display: inline;}
  </style><symbol viewBox="0 0 24 24" fill="none" stroke="currentColor" stroke-width="2" stroke-linecap="round" stroke-linejoin="round" class="feather feather-chevron-down" id="chevron-down"><polyline points="6 9 12 15 18 9" /></symbol><symbol viewBox="0 0 24 24" fill="none" stroke="currentColor" stroke-width="2" stroke-linecap="round" stroke-linejoin="round" class="feather feather-codepen" id="codepen"><polygon points="12 2 22 8.5 22 15.5 12 22 2 15.5 2 8.5 12 2" /><line x1="12" y1="22" x2="12" y2="15.5" /><polyline points="22 8.5 12 15.5 2 8.5" /><polyline points="2 15.5 12 8.5 22 15.5" /><line x1="12" y1="2" x2="12" y2="8.5" /></symbol><symbol viewBox="0 0 24 24" fill="none" stroke="currentColor" stroke-width="2" stroke-linecap="round" stroke-linejoin="round" class="feather feather-facebook" id="facebook"><path d="M18 2h-3a5 5 0 0 0-5 5v3H7v4h3v8h4v-8h3l1-4h-4V7a1 1 0 0 1 1-1h3z" /></symbol><symbol viewBox="0 0 24 24" fill="none" stroke="currentColor" stroke-width="2" stroke-linecap="round" stroke-linejoin="round" class="feather feather-github" id="github"><path d="M9 19c-5 1.5-5-2.5-7-3m14 6v-3.87a3.37 3.37 0 0 0-.94-2.61c3.14-.35 6.44-1.54 6.44-7A5.44 5.44 0 0 0 20 4.77 5.07 5.07 0 0 0 19.91 1S18.73.65 16 2.48a13.38 13.38 0 0 0-7 0C6.27.65 5.09 1 5.09 1A5.07 5.07 0 0 0 5 4.77a5.44 5.44 0 0 0-1.5 3.78c0 5.42 3.3 6.61 6.44 7A3.37 3.37 0 0 0 9 18.13V22" /></symbol><symbol viewBox="0 0 24 24" fill="none" stroke="currentColor" stroke-width="2" stroke-linecap="round" stroke-linejoin="round" class="feather feather-gitlab" id="gitlab"><path d="M22.65 14.39L12 22.13 1.35 14.39a.84.84 0 0 1-.3-.94l1.22-3.78 2.44-7.51A.42.42 0 0 1 4.82 2a.43.43 0 0 1 .58 0 .42.42 0 0 1 .11.18l2.44 7.49h8.1l2.44-7.51A.42.42 0 0 1 18.6 2a.43.43 0 0 1 .58 0 .42.42 0 0 1 .11.18l2.44 7.51L23 13.45a.84.84 0 0 1-.35.94z" /></symbol><symbol viewBox="0 0 24 24" fill="none" stroke="currentColor" stroke-width="2" stroke-linecap="round" stroke-linejoin="round" class="feather feather-instagram" id="instagram"><rect x="2" y="2" width="20" height="20" rx="5" ry="5" /><path d="M16 11.37A4 4 0 1 1 12.63 8 4 4 0 0 1 16 11.37z" /><line x1="17.5" y1="6.5" x2="17.5" y2="6.5" /></symbol><symbol viewBox="0 0 41.41 33" id="left-quote"><title>left-quote</title><path d="M22.8,34.07a7.43,7.43,0,0,1-2.38,5.79,8.67,8.67,0,0,1-6,2.14,9.4,9.4,0,0,1-7.06-2.86q-2.77-2.85-2.78-8.4a23.85,23.85,0,0,1,1.51-9,24.14,24.14,0,0,1,3.65-6.34,22,22,0,0,1,4.44-4.21A18.62,18.62,0,0,1,18.2,9l4,5.55a15.42,15.42,0,0,0-5.63,4.68,12.19,12.19,0,0,0-2.14,7.38,7.78,7.78,0,0,1,1.74-.16,5.89,5.89,0,0,1,4.92,2.22A8.51,8.51,0,0,1,22.8,34.07Zm23.16,0a7.4,7.4,0,0,1-2.38,5.79,8.67,8.67,0,0,1-6,2.14,9.41,9.41,0,0,1-7.06-2.86q-2.77-2.85-2.77-8.4a24.06,24.06,0,0,1,1.5-9,24.14,24.14,0,0,1,3.65-6.34,22,22,0,0,1,4.44-4.21,18.62,18.62,0,0,1,4-2.22l4,5.55a15.45,15.45,0,0,0-5.64,4.68,12.19,12.19,0,0,0-2.14,7.38,7.88,7.88,0,0,1,1.75-.16,5.88,5.88,0,0,1,4.91,2.22A8.45,8.45,0,0,1,46,34.07Z" transform="translate(-4.55 -9)" fill="#fff" /></symbol><symbol viewBox="0 0 24 24" fill="none" stroke="currentColor" stroke-width="2" stroke-linecap="round" stroke-linejoin="round" class="feather feather-linkedin" id="linkedin"><path d="M16 8a6 6 0 0 1 6 6v7h-4v-7a2 2 0 0 0-2-2 2 2 0 0 0-2 2v7h-4v-7a6 6 0 0 1 6-6z" /><rect x="2" y="9" width="4" height="12" /><circle cx="4" cy="4" r="2" /></symbol><symbol viewBox="0 0 24 24" fill="none" stroke="currentColor" stroke-width="2" stroke-linecap="round" stroke-linejoin="round" class="feather feather-mail" id="mail"><path d="M4 4h16c1.1 0 2 .9 2 2v12c0 1.1-.9 2-2 2H4c-1.1 0-2-.9-2-2V6c0-1.1.9-2 2-2z" /><polyline points="22,6 12,13 2,6" /></symbol><symbol viewBox="0 0 24 24" fill="none" stroke="currentColor" stroke-width="2" stroke-linecap="round" stroke-linejoin="round" class="feather feather-phone" id="phone"><path d="M22 16.92v3a2 2 0 0 1-2.18 2 19.79 19.79 0 0 1-8.63-3.07 19.5 19.5 0 0 1-6-6 19.79 19.79 0 0 1-3.07-8.67A2 2 0 0 1 4.11 2h3a2 2 0 0 1 2 1.72 12.84 12.84 0 0 0 .7 2.81 2 2 0 0 1-.45 2.11L8.09 9.91a16 16 0 0 0 6 6l1.27-1.27a2 2 0 0 1 2.11-.45 12.84 12.84 0 0 0 2.81.7A2 2 0 0 1 22 16.92z" /></symbol><symbol viewBox="0 0 24 24" fill="none" stroke="currentColor" stroke-width="2" stroke-linecap="round" stroke-linejoin="round" class="feather feather-search" id="search"><circle cx="11" cy="11" r="8" /><line x1="21" y1="21" x2="16.65" y2="16.65" /></symbol><symbol viewBox="0 0 24 24" fill="none" stroke="currentColor" stroke-width="2" stroke-linecap="round" stroke-linejoin="round" class="feather feather-twitter" id="twitter"><path d="M23 3a10.9 10.9 0 0 1-3.14 1.53 4.48 4.48 0 0 0-7.86 3v1A10.66 10.66 0 0 1 3 4s-4 9 5 13a11.64 11.64 0 0 1-7 2c9 5 20 0 20-11.5a4.5 4.5 0 0 0-.08-.83A7.72 7.72 0 0 0 23 3z" /></symbol><symbol viewBox="0 0 24 24" fill="none" stroke="currentColor" stroke-width="2" stroke-linecap="round" stroke-linejoin="round" class="feather feather-youtube" id="youtube"><path d="M22.54 6.42a2.78 2.78 0 0 0-1.94-2C18.88 4 12 4 12 4s-6.88 0-8.6.46a2.78 2.78 0 0 0-1.94 2A29 29 0 0 0 1 11.75a29 29 0 0 0 .46 5.33A2.78 2.78 0 0 0 3.4 19c1.72.46 8.6.46 8.6.46s6.88 0 8.6-.46a2.78 2.78 0 0 0 1.94-2 29 29 0 0 0 .46-5.25 29 29 0 0 0-.46-5.33z" /><polygon points="9.75 15.02 15.5 11.75 9.75 8.48 9.75 15.02" /></symbol></defs><use id="chevron-down-usage" xlink:href="#chevron-down" class="sprite-symbol-usage" /><use id="codepen-usage" xlink:href="#codepen" class="sprite-symbol-usage" /><use id="facebook-usage" xlink:href="#facebook" class="sprite-symbol-usage" /><use id="github-usage" xlink:href="#github" class="sprite-symbol-usage" /><use id="gitlab-usage" xlink:href="#gitlab" class="sprite-symbol-usage" /><use id="instagram-usage" xlink:href="#instagram" class="sprite-symbol-usage" /><use id="left-quote-usage" xlink:href="#left-quote" class="sprite-symbol-usage" /><use id="linkedin-usage" xlink:href="#linkedin" class="sprite-symbol-usage" /><use id="mail-usage" xlink:href="#mail" class="sprite-symbol-usage" /><use id="phone-usage" xlink:href="#phone" class="sprite-symbol-usage" /><use id="search-usage" xlink:href="#search" class="sprite-symbol-usage" /><use id="twitter-usage" xlink:href="#twitter" class="sprite-symbol-usage" /><use id="youtube-usage" xlink:href="#youtube" class="sprite-symbol-usage" /></svg>